#!OML:ASF E:\motion texture\Top Level 1\Subject 1\Session 1\male.ASF
:FULLY-SPECIFIED
:DEGREES
211
root 1.42033 18.0856 5.6553 442.816 -80.8289 -437.876
lowerback -1.20412 -0.256004 6.59387
upperback -1.58151 -0.46974 4.28475
thorax -0.968009 -0.331798 0.718406
lowerneck -9.29125 -5.76365 -8.98833
upperneck 24.8595 -6.58022 -1.83168
head 9.67173 -4.31015 0.0936729
rclavicle -4.17448e-015 -1.43125e-014
rhumerus -25.8319 -21.1548 -71.2165
rradius 76.1376
rwrist -24.3339
rhand -16.8067 -45.5539
rfingers 7.12502
rthumb 9.42182 -75.3233
lclavicle -4.17448e-015 -1.43125e-014
lhumerus -27.6221 3.44875 91.216
lradius 83.4324
lwrist 38.0328
lhand -9.90089 46.8951
lfingers 7.12502
lthumb 16.0791 76.248
rfemur -7.72965 3.15762 33.6078
rtibia 13.723
rfoot -7.51085 -12.6878
rtoes 16.9546
lfemur -27.5135 4.16493 -5.44579
ltibia 63.034
lfoot -3.1415 0.824054
ltoes -13.7327
212
root 1.27766 18.0875 5.63848 444.192 -80.7729 -439.164
lowerback -1.19002 -0.114946 6.73049
upperback -1.59471 -0.279304 4.21191
thorax -0.984097 -0.238679 0.568305
lowerneck -9.16256 -5.89643 -9.09745
upperneck 24.7336 -6.80427 -1.63283
head 9.62272 -4.39653 0.160555
rclavicle 4.14963e-015 5.96354e-015
rhumerus -25.7607 -20.8158 -71.6352
rradius 76.1718
rwrist -24.3082
rhand -16.8304 -45.5391
rfingers 7.12502
rthumb 9.39902 -75.3096
lclavicle 4.14963e-015 5.96354e-015
lhumerus -27.9329 3.5953 90.7421
lradius 83.7677
lwrist 37.8506
lhand -9.9143 46.7521
lfingers 7.12502
lthumb 16.0662 76.1061
rfemur -7.09796 3.25925 33.8332
rtibia 13.369
rfoot -7.80254 -12.5991
rtoes 16.8205
lfemur -28.3906 4.43365 -5.38213
ltibia 62.1254
lfoot -4.09321 1.16242
ltoes -14.1851
213
root 1.13601 18.0872 5.62267 445.645 -80.712 -440.511
lowerback -1.17362 0.0283932 6.87645
upperback -1.61214 -0.0854237 4.13713
thorax -1.0044 -0.144232 0.411076
lowerneck -9.05124 -6.03044 -9.2033
upperneck 24.5948 -7.02575 -1.44027
head 9.57287 -4.48162 0.224668
rclavicle 2.75814e-015 -4.6118e-014
rhumerus -25.6616 -20.4618 -72.0532
rradius 76.1807
rwrist -24.2355
rhand -16.8491 -45.4913
rfingers 7.12502
rthumb 9.38091 -75.2625
lclavicle 2.75814e-015 -4.6118e-014
lhumerus -28.2189 3.72915 90.2668
lradius 84.0923
lwrist 37.6463
lhand -9.9721 46.6023
lfingers 7.12502
lthumb 16.0105 75.9608
rfemur -6.5291 3.36959 34.0572
rtibia 13.0878
rfoot -8.10694 -12.5195
rtoes 16.6299
lfemur -29.2286 4.69832 -5.31457
ltibia 61.0722
lfoot -4.98792 1.55342
ltoes -14.8081
214
root 0.99531 18.0849 5.60784 447.129 -80.6512 -441.876
lowerback -1.14703 0.169085 7.02122
upperback -1.63582 0.106385 4.06324
thorax -1.03556 -0.0513061 0.255448
lowerneck -8.96316 -6.16081 -9.30629
upperneck 24.4506 -7.23514 -1.2629
head 9.52517 -4.56226 0.283723
rclavicle 1.42876e-015 2.82274e-014
rhumerus -25.5367 -20.0896 -72.4657
rradius 76.1623
rwrist -24.1018
rhand -16.8207 -45.3967
rfingers 7.12502
rthumb 9.40833 -75.1667
lclavicle 1.42876e-015 2.82274e-014
lhumerus -28.4907 3.86231 89.7942
lradius 84.4048
lwrist 37.4247
lhand -10.0212 46.4077
lfingers 7.12502
lthumb 15.9632 75.7699
rfemur -6.02243 3.4849 34.2723
rtibia 12.8898
rfoot -8.43089 -12.4504
rtoes 16.393
lfemur -30.015 4.94859 -5.2487
ltibia 59.8684
lfoot -5.78879 1.99491
ltoes -15.4458
215
root 0.855664 18.0808 5.59399 448.602 -80.5961 -443.216
lowerback -1.10832 0.306951 7.16111
upperback -1.66737 0.296432 3.98586
thorax -1.08036 0.0402125 0.0988241
lowerneck -8.88197 -6.28434 -9.38599
upperneck 24.2874 -7.42948 -1.11705
head 9.46984 -4.63666 0.330181
rclavicle 4.65902e-016 -6.59965e-014
rhumerus -25.3899 -19.7179 -72.8671
rradius 76.1096
rwrist -23.8838
rhand -16.8099 -45.2829
rfingers 7.12502
rthumb 9.41879 -75.0525
lclavicle 4.65902e-016 -6.59965e-014
lhumerus -28.7624 3.99544 89.3214
lradius 84.7115
lwrist 37.1871
lhand -10.0899 46.2245
lfingers 7.12502
lthumb 15.8971 75.592
rfemur -5.56948 3.60962 34.4713
rtibia 12.7577
rfoot -8.76667 -12.3992
rtoes 16.1205
lfemur -30.7451 5.17477 -5.19094
ltibia 58.4986
lfoot -6.44239 2.49455
ltoes -15.8956
216
root 0.716874 18.0749 5.5812 450.066 -80.5534 -444.536
lowerback -1.07194 0.440394 7.28515
upperback -1.69683 0.480477 3.90697
thorax -1.12071 0.129005 -0.0507707
lowerneck -8.81215 -6.39779 -9.47267
upperneck 24.1027 -7.6056 -0.969667
head 9.40926 -4.70228 0.380437
rclavicle -3.57191e-015 8.34896e-015
rhumerus -25.2004 -19.3437 -73.2622
rradius 76.0259
rwrist -23.609
rhand -16.7688 -45.1163
rfingers 7.12502
rthumb 9.45844 -74.8841
lclavicle -3.57191e-015 8.34896e-015
lhumerus -29.0057 4.14102 88.8537
lradius 84.997
lwrist 36.9414
lhand -10.1581 46.0499
lfingers 7.12502
lthumb 15.8314 75.4226
rfemur -5.17289 3.73291 34.6444
rtibia 12.6987
rfoot -9.1166 -12.3559
rtoes 15.8078
lfemur -31.4093 5.36908 -5.1466
ltibia 56.9615
lfoot -6.98777 3.04173
ltoes -16.2107
217
root 0.578675 18.0676 5.56939 451.507 -80.5256 -445.82
lowerback -1.03786 0.567929 7.39356
upperback -1.72758 0.656829 3.82311
thorax -1.16038 0.214109 -0.196997
lowerneck -8.76003 -6.50243 -9.54435
upperneck 23.9092 -7.76313 -0.846135
head 9.34698 -4.76013 0.421841
rclavicle -6.64686e-016 6.40087e-014
rhumerus -24.9864 -18.9651 -73.6537
rradius 75.9174
rwrist -23.307
rhand -16.7344 -44.9368
rfingers 7.12502
rthumb 9.49166 -74.7031
lclavicle -6.64686e-016 6.40087e-014
lhumerus -29.246 4.29903 88.388
lradius 85.2744
lwrist 36.7005
lhand -10.1935 45.8479
lfingers 7.12502
lthumb 15.7973 75.2233
rfemur -4.82293 3.85306 34.7884
rtibia 12.6988
rfoot -9.47893 -12.3232
rtoes 15.4651
lfemur -32.0013 5.51983 -5.1159
ltibia 55.254
lfoot -7.44039 3.62851
ltoes -16.431
